<?xml version="1.0" encoding="UTF-8"?>
<svg id="Capa_2" data-name="Capa 2" xmlns="http://www.w3.org/2000/svg" viewBox="0 0 162.3 168.04">
  <defs>
    <style>
      .cls-1 {
        fill: #e2e1e1;
      }
    </style>
  </defs>
  <g id="Capa_1-2" data-name="Capa 1">
    <g>
      <g>
        <path class="cls-1" d="M113.52,160.33c-2.74-6.62-11.24-6.84-17.29-5.83s-12.54,5.5-12.4,12.43c.03,1.47,2.32,1.47,2.29,0-.12-5.75,5.22-9.21,10.29-10.15,4.65-.86,12.7-1.17,14.9,4.16.56,1.34,2.77.75,2.2-.61h0Z"/>
        <path class="cls-1" d="M126.39,151.86c-2.47.23-4.98.27-7.38-.47s-4.55-2.16-6.77-3.26c-4.29-2.12-8.85-3.89-13.68-4.08-4.51-.18-8.75,1.18-12.24,4.04-1.7,1.39-3.15,3.05-4.49,4.79-1.22,1.58-2.29,3.2-3.75,4.58-2.66,2.51-6.5,4.98-6.63,9.03-.05,1.47,2.24,1.47,2.29,0,.1-3.13,3.78-5.38,5.84-7.3,2.81-2.63,4.62-6.09,7.47-8.7,3.27-3,7.32-4.37,11.74-4.15,4.73.23,9.18,2.16,13.34,4.28,2.18,1.11,4.33,2.44,6.71,3.1s5.04.66,7.56.43c1.45-.13,1.47-2.42,0-2.29h0Z"/>
        <path class="cls-1" d="M137.46,141.62c-3.72.88-7.9,1.5-11.73.9-3.48-.55-5.86-3.09-8.49-5.2-5.12-4.1-11.59-6.39-18.17-6.24-6.57.16-12.99,2.75-17.88,7.13-5.11,4.56-8.09,11.5-14.36,14.74-3.62,1.88-7.54.89-11.41,1.51-3.3.52-6.37,1.85-8.33,4.65-.85,1.21,1.14,2.35,1.97,1.15,1.76-2.51,4.94-3.42,7.84-3.72,1.67-.17,3.33,0,5-.04s3.4-.4,5-1.08c6.33-2.7,9.59-8.99,14.07-13.81s10.7-7.85,17.26-8.22c6.93-.39,13.41,2.13,18.64,6.58,2.71,2.3,5.34,4.4,8.97,4.84,4.03.49,8.28-.07,12.2-1,1.43-.34.83-2.54-.61-2.2h0Z"/>
        <path class="cls-1" d="M160,81.27c-.77,3.18-1.55,6.36-2.52,9.49-.71,2.3-1.45,4.54-2.92,6.48s-5.14,2.42-7.31,1.52c-1.47-.61-2.27-2.05-2.86-3.45-.67-1.62-1.09-3.38-1-5.14.15-3.12,2.48-6.53,5.35-7.79,1.34-.59.18-2.56-1.15-1.97-2.98,1.31-5.5,4.72-6.22,7.85-.45,1.96-.3,4.02.24,5.95.5,1.79,1.27,3.69,2.53,5.09,2.45,2.73,6.72,2.54,9.85,1.23,2.64-1.1,3.96-4.12,4.87-6.65,1.4-3.91,2.37-7.96,3.35-11.99.35-1.43-1.86-2.04-2.2-.61h0Z"/>
        <path class="cls-1" d="M135.21,81.57c.14,4.03-.27,8.09-.75,12.08-.44,3.62-1.07,7.18.3,10.7s4.65,5.71,8.59,5.71c4.94,0,9.6-2.03,14.6-1.27,1.44.22,2.06-1.98.61-2.2-2.35-.36-4.66-.3-7,.01-2.2.29-4.35.86-6.56,1.09-1.91.2-3.94.16-5.61-.91-1.41-.89-2.28-2.4-2.74-3.96-.97-3.28-.19-6.61.19-9.91.43-3.75.79-7.55.66-11.33-.05-1.47-2.34-1.47-2.29,0h0Z"/>
        <path class="cls-1" d="M127.86,81.57c.26,3.48-.66,7.01-1.4,10.37-.85,3.88-2.31,7.82-2.32,11.83-.01,3.69,1.43,7.01,4.45,9.19,3.24,2.35,7.32,2.87,11.22,2.96,4.85.11,10.02-.36,14.3,2.36,1.25.79,2.39-1.19,1.15-1.97-3.24-2.05-7.07-2.54-10.83-2.63-4.12-.09-8.5.3-12.39-1.37-3.52-1.52-5.58-4.46-5.62-8.32s1.42-7.69,2.24-11.43,1.75-7.32,1.48-10.98c-.11-1.46-2.4-1.47-2.29,0h0Z"/>
        <path class="cls-1" d="M120.52,81.57c.45,8.86-3.9,17.18-4.07,25.99-.08,4.2.9,8.73,4.3,11.52,3.63,2.97,8.42,3.28,12.9,3.67,5.75.5,11.23,2.07,16.28,4.91,1.28.72,2.44-1.25,1.15-1.97-4.06-2.29-8.49-3.91-13.08-4.7-4.51-.77-9.48-.32-13.69-2.35-8.63-4.16-5.17-15.96-3.48-23.16,1.06-4.54,2.23-9.21,1.99-13.91-.07-1.46-2.36-1.47-2.29,0h0Z"/>
        <path class="cls-1" d="M147.55,130.85c-2.4-1.3-5.01-2.1-7.74-2.29s-5.49.27-8.23.05c-2.95-.24-4.9-1.69-7.05-3.59-1.92-1.69-3.94-3.09-6.53-3.45-2.08-.29-4.88-.08-6.2,1.8-1.22,1.74-.78,4.16.54,5.71,1.64,1.94,4.14,2.5,6.39,3.44,2.54,1.06,3.96,3.35,6.13,4.91,2.3,1.65,5.24,2.01,8,2.14,1.37.06,2.74-.06,4.12-.06,1.2,0,2.57,0,3.5.85,1.08.99,2.71-.62,1.62-1.62-1.42-1.3-3.26-1.53-5.12-1.52-2.25.01-4.45.17-6.69-.17-2.49-.38-4.25-1.42-5.99-3.19s-3.3-2.92-5.53-3.77c-1.87-.71-4.69-1.41-5.29-3.63-.75-2.8,2.91-2.94,4.75-2.54,2.43.52,4.09,2.23,5.91,3.79s3.61,2.61,5.9,3c2.6.44,5.23.13,7.84.1,3.02-.04,5.87.58,8.53,2.03,1.29.7,2.45-1.27,1.15-1.97h0Z"/>
        <path class="cls-1" d="M24.44,82.15c2.2,3.68,2.89,8.19,5.54,11.62,1.42,1.84,3.43,3.32,5.42,4.49s4.54,1.44,6.88,1.57c3.29.18,7.07.31,10.24-.73,4.45-1.45,8.42-3.81,12.06-6.71,3.93-3.14,7.33-6.86,11.25-10.01,1.15-.92-.48-2.53-1.62-1.62-3.15,2.53-5.94,5.45-8.97,8.11-3.6,3.14-7.48,5.83-11.96,7.54-2.95,1.12-5.97,1.21-9.1,1.18-1.92-.01-3.92-.07-5.78-.56-2.18-.58-4.34-2.24-5.9-3.84-3.2-3.29-3.78-8.35-6.09-12.2-.75-1.26-2.73-.11-1.97,1.15h0Z"/>
        <path class="cls-1" d="M113.31,81.27c-2,5.71-8.69,11.9-15.17,10.82-1.9-.32-3.64-1.3-5.44-1.94s-3.68-.98-5.58-1.07c-4.03-.18-8.07.8-11.77,2.33-7.83,3.25-14.32,8.96-22.09,12.32-3.79,1.64-7.89,2.67-12.05,2.34-3.85-.31-7.52-1.8-10.76-3.86-7.86-5-12.71-13.29-17.17-21.21-.72-1.28-2.7-.13-1.97,1.15,4.18,7.43,8.67,15.01,15.53,20.3s14.58,7.25,22.68,5.03c8.75-2.4,15.71-8.47,23.65-12.55,3.92-2.01,8.22-3.51,12.66-3.58,2.22-.04,4.39.31,6.47,1.08,1.84.68,3.6,1.62,5.55,1.92,7.67,1.18,15.28-5.63,17.67-12.46.49-1.39-1.72-1.99-2.2-.61h0Z"/>
        <path class="cls-1" d="M.15,82.15c3.2,5.96,6.07,12.12,9.83,17.76,3.84,5.75,8.51,10.49,14.93,13.27,7.18,3.12,15.33,4.07,23.11,3.66,4.07-.22,7.99-1.06,11.78-2.55s7.33-3.41,10.94-5.24,7.52-3.66,11.58-4.65c2.03-.49,4.1-.77,6.19-.73s4.17.47,6.25.81c1.96.32,3.92.52,5.91.38,1.65-.12,3.29-.36,4.94-.3s3.23.53,4.05,2,.55,3.29.02,4.79c-.65,1.83-1.91,3.39-3.01,4.97s-1.92,3.01-2.57,4.72c-.56,1.48-1.08,3.28-2.77,3.79-1.86.56-4.21.23-6.14.21-7.22-.08-15.81.13-20.75,6.31-2.1,2.62-3.07,5.85-4.66,8.77-1.8,3.32-4.53,5.17-8.26,5.79-4.13.68-8.35-.14-12.5.25-3.55.33-7.07,1.18-10.22,2.9-1.55.84-2.96,1.9-4.26,3.09-1.08,1,.54,2.61,1.62,1.62,2.8-2.59,6.25-4.16,9.97-4.9,4.21-.84,8.4-.3,12.64-.43,3.56-.1,7.24-.87,10-3.26,2.57-2.23,3.75-5.53,5.16-8.53,1.57-3.32,3.66-5.89,7.06-7.45,3.76-1.71,7.97-1.91,12.04-1.89,2.14,0,4.29.08,6.43.02,1.7-.05,3.39-.3,4.65-1.56,1.12-1.12,1.62-2.68,2.17-4.12.68-1.78,1.73-3.32,2.83-4.87,2.01-2.83,3.91-6.04,3.15-9.66-.7-3.3-3.73-4.77-6.85-4.85-1.72-.04-3.42.23-5.13.33-2.13.13-4.2-.19-6.29-.55-4.1-.71-8-.86-12.09.1-8.22,1.94-15.16,6.99-22.95,10.03s-16.6,3.08-24.75,1.49c-3.92-.76-7.76-2.02-11.25-3.97-3.01-1.68-5.54-3.92-7.76-6.55-4.48-5.29-7.62-11.62-10.78-17.74-.76-1.47-1.52-2.94-2.31-4.4-.7-1.3-2.67-.14-1.97,1.15H.15Z"/>
        <path class="cls-1" d="M97.83,120.21c2-.76,3.85-1.55,5.27-3.21.99-1.16,2.09-3.31,1.59-4.86-.84-2.6-4.49-3.11-6.77-3.2-3.32-.13-6.69.46-9.99.8-5.75.59-12.31.94-16.54,5.45-1.52,1.62-3.42,4.53-2.29,6.82,1.21,2.46,4.95,2.67,7.32,2.67,3.7,0,7.18-1.07,10.71-2.03s7.16-1.48,10.69-2.43c1.42-.38.82-2.59-.61-2.2-2.43.66-4.91,1.11-7.37,1.64s-4.9,1.32-7.37,1.92-5.27,1.03-7.93.72c-.94-.11-2.45-.24-3.15-.99-.81-.88.12-2.44.65-3.26,2.65-4.12,7.92-5.14,12.42-5.65,2.58-.29,5.17-.54,7.76-.8s5.27-.68,7.82-.09c.85.2,2.62.61,2.43,1.76-.1.61-.47,1.42-.82,1.93-1.05,1.51-2.79,2.19-4.43,2.82-1.36.52-.77,2.73.61,2.2h0Z"/>
        <path class="cls-1" d="M30.65,149.78c3.58-1.84,7.2-3.71,11.14-4.65s7.99-.72,11.98-1.04c3.33-.26,6.9-.8,9.59-2.94,2.7-2.15,3.75-6.04,3.52-9.38s-2.84-5.62-5.68-7.24c-3.2-1.83-6.75-3.03-10.41-3.52-4.08-.55-8.19-.17-12.28-.36-3.88-.18-7.72-1.02-11.32-2.46-3.93-1.57-7.34-4.13-11.18-5.88s-8.08-2.32-12.3-1.37c-1.43.33-.83,2.53.61,2.2,3.66-.83,7.34-.34,10.73,1.22,3.11,1.44,5.92,3.43,9,4.92s6.3,2.53,9.64,3.12c3.67.64,7.35.58,11.06.57s7.34.3,10.87,1.51c2.8.97,6.42,2.48,8.18,5.01s.64,7.7-1.67,9.71c-2.52,2.2-6.36,2.49-9.53,2.67-3.97.23-7.98.15-11.87,1.15s-7.63,2.91-11.24,4.77c-1.31.67-.15,2.65,1.15,1.97h0Z"/>
        <path class="cls-1" d="M6.96,121.09c3.06-.21,6.2-.41,9.1.79,2.23.92,4.19,2.42,6.11,3.85s4.04,2.96,6.37,3.91c2.63,1.07,5.48,1.35,8.3,1.48,3.02.14,6.02.26,9.03.63,1.55.19,3.09.44,4.62.72,1.36.25,2.96.42,4.14,1.21s1.6,2.31.26,3.23c-1.21.83-3,.85-4.4.98-3.2.29-6.42.28-9.63.45-5.88.31-11.92,1.12-16.53,5.09-1.12.96.51,2.57,1.62,1.62,4.72-4.06,11.41-4.32,17.33-4.52,3.28-.12,6.59-.15,9.85-.66,2.46-.38,5.28-1.91,4.93-4.82s-3.28-4.05-5.78-4.55c-3.2-.65-6.45-1.1-9.7-1.37s-6.62-.12-9.86-.69c-2.95-.52-5.42-1.84-7.84-3.56s-4.8-3.72-7.58-4.94c-3.3-1.45-6.8-1.37-10.33-1.13-1.46.1-1.47,2.39,0,2.29h0Z"/>
        <path class="cls-1" d="M11.98,128.66c1.84-.78,3.97-1.12,5.88-.38,1.71.66,2.71,2.16,3.78,3.55.53.69,1.26,1.31,1.68,2.06.37.66.85,1.53.95,2.28.27,2.02-1.71,3.41-3.23,4.25-1.29.71-.14,2.69,1.15,1.97,1.74-.96,3.35-2.24,4.06-4.16s.03-3.57-.82-5.25c-.4-.8-1.04-1.37-1.6-2.05s-1.08-1.44-1.65-2.14c-1.18-1.45-2.72-2.55-4.57-2.98-2.32-.54-4.63-.04-6.79.87-.57.24-.69,1.08-.41,1.56.34.59.99.65,1.56.41h0Z"/>
      </g>
      <g>
        <path class="cls-1" d="M88.91,58.93c-.17-.36-.28-.6-.34-.71-.08-.17-.2-.44-.37-.79-.17-.35-.29-.61-.37-.79-.15-.31-.48-.97-1.01-1.96-.14.24-.27.49-.41.75-.13.26-.27.51-.41.77s-.24.45-.3.57c-.47.93-.75,1.47-.82,1.63l-.72,1.52c-.07.16-.37.79-.89,1.91.49.02,1.14.03,1.95.03h1.38c.6,0,1.09,0,1.47-.03.56-.03,1.25-.05,2.07-.08-.3-.66-.59-1.32-.87-1.99-.09-.2-.22-.48-.39-.84Z"/>
        <path class="cls-1" d="M81.24,0C36.47,0,.17,36.52.17,81.57h162.13C162.3,36.52,126.01,0,81.24,0ZM27.54,71.06c-1.3-.03-2.41-.05-3.31-.08-.62-.02-1.41-.03-2.35-.03h-1.56c-.23,0-.58.02-1.05.03-.47,0-.83.02-1.07.03-.28,0-.71.02-1.29.03-.59,0-1.03.02-1.33.03,0-.13.02-.36.03-.68.01-.33.03-.65.04-.98s.02-.66.03-.98c0-.29.01-.62.02-.99s.01-.81.02-1.33c0-.52.02-.96.03-1.29.02-.96.03-2.75.03-5.36v-2.37c0-.23-.02-.57-.03-1.04-.01-.47-.02-.82-.03-1.04-.02-.57-.04-1.29-.08-2.16,0-.27-.05-1.12-.13-2.55l2.73.03c-.09,2.26-.13,3.46-.13,3.62-.03,1.02-.05,1.94-.08,2.75-.02.55-.03,1.3-.03,2.26-.02.48-.03,1.22-.03,2.24v1.17c0,.61,0,1.1.03,1.47.03.54.05,1.23.08,2.08.05,1.58.09,2.59.1,3.03h5.26c.47,0,.82,0,1.03-.03.42,0,.75,0,.98-.03.38-.03.72-.06,1.03-.08.32-.03.72-.05,1.22-.08l-.16,2.34ZM47.89,51.96c-.02.3-.03.76-.03,1.38-.02.34-.03.87-.03,1.6v4.1c0,.1-.02.26-.03.46,0,.2-.02.34-.03.43-.08,1.61-.25,3.07-.5,4.4-.26,1.34-.69,2.51-1.29,3.51-.66,1.15-1.57,2.03-2.75,2.64-1.17.64-2.64.96-4.4.96s-3.4-.33-4.8-.99c-1.41-.66-2.44-1.61-3.09-2.85-.3-.52-.52-1.11-.65-1.76-.14-.58-.25-1.36-.34-2.33-.08-.91-.13-1.99-.15-3.24-.02-.83-.03-2.31-.03-4.42v-2.13c-.03-.41-.04-.87-.04-1.39,0-.19-.02-.5-.03-.93,0-.43-.02-.76-.03-.98.4.03.67.05.83.05h1.29c.28,0,.49,0,.61-.03-.11,1.35-.18,2.62-.21,3.81-.05,1.3-.08,2.75-.08,4.35,0,.74.02,1.65.05,2.75.03.81.08,1.54.16,2.21.08.69.2,1.28.38,1.78.14.49.35.96.63,1.43.55.9,1.31,1.57,2.28,2,.95.43,2.04.64,3.28.64,1.31,0,2.41-.25,3.29-.74.88-.49,1.59-1.29,2.12-2.41.27-.58.48-1.2.63-1.86.18-.78.31-1.49.37-2.13.08-.71.13-1.45.16-2.21.02-.49.03-1.21.03-2.16v-1.7c0-.18-.02-.46-.03-.83,0-.37-.02-.64-.03-.83-.03-.65-.06-1.25-.08-1.81,0-.33-.05-1.08-.13-2.24.14.02.36.03.66.03h1.32c.15,0,.38-.02.69-.05-.02.37-.03.87-.03,1.5ZM73.61,51.98c0,.19-.03.65-.05,1.39-.03.73-.04,1.33-.05,1.8-.03,1.15-.05,2.46-.08,3.92-.03,1.42-.04,2.74-.04,3.96v8.2l-.23.09c-1.93-1.94-3.48-3.47-4.66-4.57-2.41-2.26-4.03-3.79-4.88-4.61-1.22-1.13-2.01-1.87-2.39-2.24-.16-.15-.44-.4-.81-.76-.38-.36-.66-.62-.85-.79-.05-.04-.26-.23-.63-.56-.37-.33-.65-.59-.84-.77-.53-.45-1.12-.97-1.77-1.55-.02.22-.06.77-.13,1.66-.07.89-.12,1.6-.14,2.13-.15,1.94-.24,3.28-.28,4.02-.02.22-.05.77-.11,1.65-.06.88-.09,1.53-.11,1.96-.05,1.09-.08,1.92-.08,2.47,0,.51,0,.89.03,1.15,0,.49,0,.88.03,1.15-.1-.03-.24-.06-.42-.1-.18-.04-.3-.07-.37-.08-.09,0-.21-.03-.36-.05-.15-.03-.26-.04-.32-.05-.07,0-.18-.02-.32-.03-.15,0-.26-.02-.34-.03-.02,0-.32-.02-.92-.06.28-2.16.54-4.48.79-6.95.26-2.56.47-4.92.63-7.09.08-.91.12-1.49.13-1.73,0-.16.03-.41.06-.77.03-.36.05-.63.06-.83,0-.18.02-.47.03-.87,0-.39.02-.69.03-.89,0-.23.02-.59.03-1.09,0-.5.02-.89.03-1.15l.28-.08c.34.5,1.07,1.34,2.2,2.5.83.88,2.13,2.16,3.92,3.87,1.26,1.2,2.92,2.72,4.98,4.55,1.37,1.24,3.17,2.81,5.41,4.7.03-.95.05-1.77.08-2.45,0-.22.02-.54.03-.98,0-.43.02-.75.03-.95.02-.39.03-.95.03-1.68v-3.71c-.02-.37-.03-.92-.03-1.65-.03-.59-.05-1.16-.08-1.7,0-.21-.05-.91-.13-2.1.09,0,.24.02.43.03.19,0,.32.02.4.03.15.02.43.03.81.03.23,0,.41,0,.53-.03.27,0,.46,0,.58-.03-.05.44-.09,1.02-.1,1.73ZM96.3,70.63c-.08.03-.18.07-.32.14-.13.07-.22.11-.27.13-.22.1-.42.19-.58.29-.19.14-.43.28-.71.43-.06-.17-.14-.38-.25-.65-.11-.27-.18-.46-.23-.57-.06-.16-.19-.48-.4-.96-.15-.35-.28-.67-.39-.96-.04-.1-.22-.5-.53-1.2l-1.41-3.14c-1.08-.03-1.68-.06-1.8-.07-.12,0-.3-.02-.54-.03-.24,0-.41-.02-.52-.03h-6.09c-.52.99-.85,1.62-.98,1.9-.53,1.08-.8,1.64-.82,1.68-.21.43-.37.8-.5,1.09-.03.08-.1.22-.19.42-.09.2-.15.36-.19.48-.13.3-.25.62-.35.94-.14.38-.27.78-.39,1.2-.31-.17-.55-.31-.72-.43-.21-.1-.4-.21-.58-.31-.06-.03-.16-.07-.29-.14-.13-.06-.23-.11-.29-.14-.07-.03-.18-.08-.34-.15-.16-.07-.28-.13-.37-.16.11-.2.26-.46.44-.78.18-.32.31-.54.37-.66.41-.7.63-1.09.67-1.17.03-.05.12-.22.28-.49.16-.28.28-.49.36-.65.26-.51.5-.96.74-1.35.13-.23.55-1.03,1.27-2.41.74-1.41,1.15-2.2,1.23-2.37.1-.21.3-.6.59-1.18.29-.58.52-1.03.68-1.36.84-1.73,1.3-2.7,1.4-2.9l2.79-5.75h.23l2.52,6.18c.03.06.16.37.41.94.05.12.15.34.29.66.14.32.26.59.34.79.18.43.47,1.05.85,1.85.34.77.66,1.44.96,1.99.09.19.28.56.55,1.11.27.55.49.99.67,1.32.53,1.08.95,1.93,1.27,2.52.47.96.84,1.69,1.11,2.19.49.93.75,1.42.78,1.47-.3.1-.55.2-.75.29ZM113.05,70.6c-.18.14-.55.46-1.11.96-.36-.53-.88-1.25-1.54-2.16-.15-.2-.41-.53-.78-1-.36-.46-.64-.82-.84-1.06-.16-.2-.42-.54-.8-1.01s-.68-.85-.89-1.11c-.24-.29-.88-1.07-1.91-2.36-.24.03-.44.05-.61.05-.14.02-.32.03-.56.03h-.63c-.13,0-.39-.02-.79-.05,0,1.63,0,2.74.03,3.33,0,.27.02.66.03,1.17,0,.51.02.88.03,1.09.03.56.05,1.06.08,1.5,0,.13.02.32.03.58,0,.26.02.44.03.57-.58-.03-.94-.05-1.09-.08h-.63c-.3,0-.63,0-.98.03.1-1.58.16-2.62.18-3.12.03-.94.04-1.81.04-2.63v-8.93c0-.23-.02-.6-.03-1.09s-.02-.84-.03-1.05c0-.26-.03-.64-.05-1.15s-.04-.88-.05-1.12c0-.02-.03-.59-.1-1.73.13,0,.32-.02.57-.03.25,0,.44-.02.57-.03h1.24c1.22,0,2.27.09,3.13.26.93.19,1.74.46,2.43.79,2.32,1.15,3.48,2.99,3.48,5.52,0,.35-.06.79-.17,1.34-.11.54-.31,1.05-.58,1.52-.34.57-.72,1.06-1.16,1.46-.49.47-1.13.87-1.93,1.2l6.54,7.44c-.29.21-.66.49-1.11.85ZM130.53,52.52c-.15,0-.38-.03-.69-.06-.31-.03-.55-.05-.72-.06-.16,0-.42-.02-.77-.03-.35,0-.61-.02-.8-.03-.37-.02-1.05-.03-2.04-.03h-.84c-.4,0-.68,0-.85.03-.03.74-.05,1.96-.08,3.68-.02,1.15-.03,3.44-.03,6.85v1.63c0,.79,0,1.4.03,1.82,0,.23.02.58.03,1.06,0,.48.02.84.03,1.09.03.75.05,1.64.08,2.64-.14-.02-.36-.03-.66-.03h-1.32c-.28,0-.5,0-.66.03.03-.38.05-.8.08-1.25,0-.1.03-.33.05-.7.03-.37.04-.67.05-.9,0-.22.02-.56.03-1.03,0-.47.02-.83.03-1.07.02-.51.03-1.43.03-2.75v-4.45c-.02-.83-.03-1.9-.03-3.2,0-.25-.02-.62-.03-1.11,0-.49-.02-.83-.03-1.04-.03-.52-.05-.94-.08-1.26h-1.59c-.34.02-.81.03-1.41.03-.72,0-1.61.02-2.66.05-.56.02-1.42.09-2.57.22,0-.06.04-.25.1-.57.06-.32.09-.56.11-.7,0-.04.05-.45.14-1.21,1.14.1,2.01.15,2.61.17.48.03,1.24.07,2.28.1.47.02,1.19.03,2.15.03h4.64c.99,0,1.72,0,2.2-.03l2.15-.08c1.01-.03,1.77-.07,2.28-.1.07.55.11.93.13,1.15,0,.16.07.57.18,1.25-.43-.02-.94-.06-1.53-.13ZM143.52,70.98c-.62-.02-1.41-.03-2.35-.03-1.06,0-1.95,0-2.68.03-1.04.03-2.3.05-3.76.08.05-1.31.1-2.42.16-3.33.04-1.56.06-2.49.06-2.77v-3.68c-.02-.57-.03-1.5-.03-2.77,0-.33-.02-.82-.03-1.48-.01-.65-.02-1.15-.03-1.48-.02-.82-.04-1.78-.08-2.88-.02-.75-.06-1.58-.13-2.49.2,0,.46.03.78.05.32.03.51.04.56.04.13,0,.31.02.55.03s.42.02.54.03c.23.02.56.03.98.03h.96c1.13,0,1.91,0,2.33-.03.46,0,1.02-.02,1.69-.05.51-.03,1.01-.06,1.51-.12.2,0,.76-.05,1.69-.13.02.43.06.87.13,1.34.02.24.07.68.17,1.3-.27-.05-.51-.09-.72-.1-.32-.03-.72-.05-1.22-.08-.17,0-.43-.02-.76-.03-.34-.01-.59-.02-.75-.03-.19,0-.47-.02-.83-.03-.36,0-.63-.02-.81-.03-1.24-.03-2.63-.05-4.18-.08,0,.23-.02.56-.03,1,0,.44-.02.76-.03.96,0,.19-.02.47-.03.83s-.02.64-.03.82c-.02.37-.03.98-.03,1.81v2.39c.47.02,1.11.03,1.9.03h2.86c.59,0,1.03,0,1.33-.03.16,0,.39-.02.7-.03.31,0,.55-.02.72-.03.18,0,.47-.02.85-.03.39,0,.69-.02.89-.03-.03.26-.05.48-.08.66-.04.3-.07.48-.08.53,0,.05-.02.13-.03.25,0,.11-.02.2-.03.26-.03.16-.05.37-.08.64-.41,0-.92-.03-1.55-.06-.63-.03-.99-.05-1.07-.05-.22,0-.56-.02-1.02-.03-.46,0-.79-.02-1-.03-.41-.02-1.04-.03-1.9-.03h-2.43c0,.36.02.9.03,1.61s.02,1.23.03,1.56c0,.16.02.39.03.71,0,.32.02.54.03.67,0,.46,0,.79.03.99,0,.37,0,.63.03.77,0,.25,0,.4.03.46h5.41c.47,0,.82,0,1.03-.03.41,0,.74,0,.97-.03.38-.03.72-.06,1.03-.08.32-.03.72-.05,1.22-.08l-.15,2.34c-1.3-.03-2.41-.05-3.31-.08Z"/>
        <path class="cls-1" d="M108.96,56.8c0-1.49-.53-2.59-1.59-3.31-1.1-.73-2.65-1.09-4.63-1.09,0,.1-.02.27-.03.49,0,.22-.02.39-.03.5,0,.14-.03.52-.08,1.15-.02.27-.03.62-.03,1.07-.02.23-.03.51-.03.83v4.31c.41.06.73.09.97.09,1.87,0,3.25-.37,4.14-1.12.86-.73,1.29-1.7,1.29-2.91Z"/>
      </g>
    </g>
  </g>
</svg>
